<svg xmlns="http://www.w3.org/2000/svg" fill="none" viewBox="0 0 32 32"><mask id="a" width="32" height="32" x="0" y="0" maskUnits="userSpaceOnUse" style="mask-type:alpha"><path fill="#d9d9d9" d="M0 0h32v32H0z"/></mask><g mask="url(#a)"><path fill="#111" fill-opacity=".98" fill-rule="evenodd" d="M20.286-41.075a1.8 1.8 0 0 0-.69.562c-.177.265-.265.531-.295.915-.03.424.02.65.177.965.109.236.375.532.581.67.198.138.542.275.76.315.216.03.57 0 .787-.07.217-.068.512-.206.67-.304.148-.109.365-.375.473-.61.158-.316.207-.542.177-.966s-.108-.63-.335-.925c-.167-.207-.473-.463-.69-.561a2.3 2.3 0 0 0-.787-.178c-.217 0-.591.089-.828.187m.266.749c.148-.08.384-.138.542-.148.148 0 .384.06.542.138a.95.95 0 0 1 .394.394c.059.138.118.384.118.551 0 .207-.108.404-.335.64-.236.246-.423.345-.64.345-.168 0-.424-.06-.562-.128a.85.85 0 0 1-.394-.394 1.4 1.4 0 0 1-.138-.561c0-.168.05-.384.099-.493a1 1 0 0 1 .374-.344m-122.998.738c-.335.158-.473.296-.631.66-.167.384-.197.57-.147 1.014.039.295.049.65.009.788-.049.226-.108.256-.669.305-.335.03-.729.128-.877.216a1.4 1.4 0 0 0-.444.434c-.128.187-.187.541-.226 1.2l-.049.946c-.917.089-1.281.167-1.399.227-.128.068-.316.265-.424.433-.197.315-.197.502-.197 11.155s0 10.84.197 11.155c.108.168.345.384.522.473.286.148 1.133.167 8.867.148 7.379-.01 8.58-.03 8.837-.158a1.4 1.4 0 0 0 .472-.413c.109-.178.188-.542.217-1.103l.05-.847c.994-.079 1.389-.177 1.526-.266.138-.088.326-.315.424-.512.099-.216.168-.58.168-.945 0-.492.03-.59.177-.59.089-.01.483-.05.857-.1.552-.078.749-.147.966-.363.147-.158.315-.434.364-.62.06-.198.099-3.634.099-8.271-.01-4.362-.04-8.26-.07-8.664l-.068-.739-5.655-5.71c-12.295-.05-12.492-.04-12.896.147m.207.798c.187-.207.207-.207 12.177-.207v2.392c0 2.127.02 2.413.177 2.678.098.168.345.375.542.473.315.148.67.168 4.699.168l.03.226c.02.118.029 3.899.029 8.398-.01 7.129-.03 8.202-.158 8.35-.138.157-.778.167-8.768.167-7.989 0-8.63-.01-8.768-.167-.128-.148-.147-1.536-.147-11.225 0-10.712.009-11.056.187-11.253m13.024.64c.049-.05.965.817 2.03 1.92 1.063 1.102 1.92 2.038 1.89 2.087-.019.04-.847.069-1.832.069-1.576 0-1.822-.03-1.98-.177-.157-.148-.177-.384-.187-2-.01-1.003.03-1.86.079-1.9m-15.221 2.254c.157-.098.404-.147 1.182-.098l-.01 9.747c0 9.049.02 9.767.178 10.092.088.187.325.443.857.798l15.22-.01v.62c.01.502-.03.65-.206.807-.207.197-.325.197-8.65.168-7.753-.03-8.443-.05-8.611-.197-.167-.158-.177-.739-.197-21.77zm-2.128 2.885c.128-.128.325-.177 1.133-.177v9.62c0 9.451.01 9.638.197 9.944.108.177.295.384.424.443.167.098 2.029.137 15.683.226l.03.345c.02.187.01.531-.02.758-.049.335-.118.453-.325.561-.227.118-1.625.128-8.6.098-7.803-.029-8.335-.049-8.502-.206-.168-.168-.178-.749-.188-10.801-.009-10.17-.009-10.634.168-10.81m87.778-6.439c-.374.069-1.133.276-1.674.453-.542.177-1.291.472-1.675.67-.375.186-1.025.56-1.429.836-.404.266-1.162.916-1.684 1.438s-1.192 1.32-1.488 1.782c-.305.463-.69 1.142-.867 1.526a15 15 0 0 0-.552 1.526c-.128.463-.275 1.28-.325 1.822-.059.59-.059 1.23 0 1.595.06.443.06.679-.02.837-.068.128-.728 1.112-1.477 2.195-.739 1.083-1.448 2.186-1.567 2.462-.187.413-.206.541-.118.837.06.186.217.433.335.55.128.119.384.257.572.326.187.059.6.138.916.177.305.05.561.089.561.098 0 .02-.108.296-.246.62-.138.326-.246.71-.246.857 0 .168.098.374.246.522.187.187.217.286.148.414a1.3 1.3 0 0 0-.099.472c0 .158.06.414.128.552.07.137.266.334.444.443.177.098.315.226.315.285 0 .05-.06.246-.138.414a4.6 4.6 0 0 0-.207.768c-.05.305-.02.59.079.935.108.335.286.61.581.876.237.217.581.453.769.542.256.108.876.157 2.433.197 1.94.059 2.098.069 2.246.256.079.108.187.354.237.541.059.187.177.896.266 1.576.098.679.216 1.29.275 1.358.06.07.198.128.306.128s.256-.059.315-.128c.07-.078.099-.285.07-.521-.03-.217-.12-.837-.198-1.379-.079-.541-.207-1.181-.286-1.428a1.9 1.9 0 0 0-.482-.768c-.197-.167-.454-.334-.572-.364-.128-.03-1.093-.059-2.147-.069-1.695-.03-1.97-.049-2.306-.226-.216-.109-.473-.335-.571-.493-.138-.216-.178-.433-.148-.836a5.3 5.3 0 0 1 .177-1.005c.099-.344.109-.541.04-.738-.06-.158-.237-.335-.424-.424-.177-.078-.364-.226-.414-.324-.069-.119-.049-.227.08-.365a.75.75 0 0 1 .413-.226c.177-.01.256-.089.276-.266a.355.355 0 0 0-.148-.374.76.76 0 0 0-.374-.118.8.8 0 0 1-.384-.118c-.178-.128-.178-.148.078-.798.138-.364.256-.748.256-.857s-.098-.315-.216-.452c-.187-.217-.345-.266-.966-.325-.404-.04-.837-.128-.955-.187-.158-.089-.227-.207-.227-.414 0-.216.266-.68.926-1.654.512-.739 1.232-1.792 1.606-2.334l.67-.984c.02-3.19.05-3.554.236-4.165.109-.384.316-.975.454-1.3.137-.324.443-.915.68-1.309.245-.384.718-1.044 1.063-1.447a12.5 12.5 0 0 1 1.468-1.408 12 12 0 0 1 1.714-1.123c.493-.246 1.261-.58 1.724-.738a13 13 0 0 1 1.675-.424c.463-.088 1.33-.147 1.921-.147.601 0 1.458.059 1.921.138a14 14 0 0 1 1.527.384c.385.128 1.005.393 1.38.58.384.197 1.044.611 1.477.936s1.005.827 1.271 1.122.67.818.907 1.172c.226.354.551.945.719 1.33.157.373.404 1.082.551 1.574.148.503.296 1.389.365 2.068.079.975.069 1.369-.06 2.265-.088.59-.265 1.477-.413 1.969a13 13 0 0 1-.571 1.575 19 19 0 0 1-.808 1.477c-.266.433-.857 1.27-1.31 1.87-.444.591-.966 1.389-1.143 1.773a7 7 0 0 0-.503 1.526c-.128.65-.148 1.152-.108 2.215.04.995.128 1.655.305 2.363.128.542.424 1.448.64 2.019.227.57.513 1.21.631 1.427.128.217.306.404.394.414.089.02.237-.03.325-.099a.4.4 0 0 0 .148-.265c0-.08-.177-.522-.394-.985s-.542-1.349-.729-1.97a16 16 0 0 1-.463-2.067c-.069-.531-.108-1.339-.069-1.87.03-.63.138-1.192.306-1.704.137-.413.374-.945.522-1.181.147-.227.522-.748.827-1.152.306-.404.798-1.113 1.104-1.575.305-.463.768-1.3 1.044-1.871.266-.571.61-1.477.749-2.019a17 17 0 0 0 .364-2.067c.089-.817.089-1.369 0-2.265a15 15 0 0 0-.355-2.067 12.4 12.4 0 0 0-.65-1.773 9.6 9.6 0 0 0-.827-1.477 15 15 0 0 0-1.005-1.22 11.3 11.3 0 0 0-1.419-1.241 12 12 0 0 0-1.478-.935 14 14 0 0 0-1.477-.61 13 13 0 0 0-1.675-.424c-.483-.089-1.38-.148-2.118-.138-.7 0-1.586.06-1.97.128m-29.358 1.94c-.482.039-1.33.177-1.872.285a17 17 0 0 0-1.674.463c-.375.138-.995.404-1.38.6-.374.188-.995.552-1.379.808-.374.256-.995.768-1.36 1.142-.374.374-.837.926-1.034 1.23-.197.306-.404.63-.463.73-.079.147-.157.078-.492-.454-.207-.344-.7-.964-1.094-1.368a12 12 0 0 0-1.478-1.28 12 12 0 0 0-1.566-.896 20 20 0 0 0-1.724-.66 19 19 0 0 0-1.872-.453c-.59-.098-1.507-.157-2.492-.157h-1.567c-.66.68-.67.699-.67 1.575v.886c-.758 0-1.113.07-1.28.148a1.7 1.7 0 0 0-.493.413c-.167.237-.197.424-.197 1.231v.965c-.61 0-.946.079-1.153.167-.197.099-.443.306-.541.473-.168.276-.178.797-.178 9.255-.01 8.231.01 8.97.158 9.108.148.127.295.127 1.409-.03.68-.089 1.793-.217 2.472-.276.74-.069 2.306-.088 3.892-.059 2.098.04 3.073.099 4.63.305 1.813.237 2.04.296 2.808.65.64.296.965.394 1.36.394.393 0 .68-.079 1.23-.354.621-.315.927-.384 2.336-.591a68 68 0 0 1 2.807-.335 56 56 0 0 1 3.3-.098c1.163 0 2.76.069 3.547.147.788.07 1.852.197 2.375.266.827.108.975.108 1.113-.02.157-.137.167-.866.157-9.107 0-6.912-.03-9.019-.118-9.196a1.7 1.7 0 0 0-.404-.443q-.286-.207-.817-.236l-.532-.02c0-1.31-.06-1.812-.128-1.999a1.6 1.6 0 0 0-.424-.541c-.227-.177-.404-.227-.897-.217h-.62c0-1.447-.04-1.693-.197-1.95-.109-.167-.276-.354-.365-.403-.098-.05-.64-.108-1.212-.128a15 15 0 0 0-1.92.03m-20.984.758c.168-.04.828-.05 1.478-.03s1.645.128 2.217.246c.571.109 1.389.315 1.822.453a13 13 0 0 1 1.38.561c.325.158.965.542 1.428.847a8.3 8.3 0 0 1 1.478 1.27c.354.384.827 1.064 1.478 2.285v16.737l-.917-.964c-.512-.522-1.25-1.182-1.655-1.458a14 14 0 0 0-1.566-.925 20 20 0 0 0-1.577-.69 17 17 0 0 0-1.674-.482 25 25 0 0 0-1.823-.305c-.483-.05-1.231-.098-2.413-.098l.049-17.378zm21.575-.01c.217-.02.759-.04 1.212-.05.601-.019.848.02.956.129.128.128.148 1.24.148 17.378h-.907c-.502 0-1.379.069-1.95.147-.572.089-1.3.227-1.626.305-.325.09-.946.276-1.38.434-.433.147-1.122.423-1.526.62-.404.187-1.074.571-1.478.837s-1.074.788-1.478 1.172-.857.876-1.005 1.102c-.147.217-.315.384-.374.355s-.098-2.875-.098-8.222c0-7.876.01-8.191.197-8.684.108-.285.374-.807.6-1.161.227-.355.66-.896.966-1.221a10 10 0 0 1 1.29-1.073 14 14 0 0 1 1.626-.916 14 14 0 0 1 1.823-.67c.512-.137 1.31-.295 1.773-.344a43 43 0 0 1 1.231-.138m-23.25 2.471c.217-.02.434-.02.483 0 .04.02.08 3.525.07 7.808-.01 7.306 0 7.778.167 7.857.088.05.857.108 1.694.138 1.064.04 1.892.138 2.71.305.65.138 1.605.404 2.117.6.513.197 1.183.493 1.478.66.296.168.848.502 1.222.758.374.246.985.788 1.36 1.192.453.492.65.768.58.837q-.097.098-.226-.02c-.069-.06-.552-.295-1.064-.522a37 37 0 0 0-1.872-.758 24 24 0 0 0-2.118-.62 49 49 0 0 0-2.512-.493c-.73-.118-2.089-.246-4.729-.344v-8.566c-.01-6.892.02-8.586.118-8.684.07-.06.306-.128.523-.148m26.354.02h.522c.286 0 .571.05.64.118.099.099.118 1.92.118 17.309h-1.133c-.62 0-1.763.069-2.531.148-.779.088-2.03.285-2.788.443-.759.157-1.912.463-2.562.68-.65.206-1.694.61-2.315.895-.62.276-1.182.532-1.251.551-.07.02-.128-.03-.128-.108 0-.079.276-.423.62-.768.335-.344.897-.827 1.252-1.073.354-.246 1.044-.65 1.527-.896a18 18 0 0 1 1.773-.748c.492-.178 1.31-.404 1.822-.512.592-.128 1.537-.227 2.562-.266 1.133-.04 1.665-.099 1.753-.187.09-.099.119-1.812.119-7.857zm-28.718 2.934c.109-.108.325-.177.936-.177v7.61c0 6.006.02 7.631.118 7.73.099.088.542.118 1.606.118.818 0 2.06.069 2.758.147.71.089 1.656.227 2.119.306.463.088 1.211.265 1.674.393.464.138 1.232.384 1.715.562.482.167.886.344.906.393.02.04.03.09.02.109-.02.02-.473-.03-1.015-.099-.542-.079-2.177-.157-3.645-.197-2.069-.049-3.064-.03-4.483.099a66 66 0 0 0-2.857.305l-.02-8.556c-.01-8.172-.01-8.566.168-8.743m30.787-.177h.374c.207 0 .443.078.542.177.167.157.177.64.167 17.25h-.246c-.138 0-.808-.07-1.498-.148a60 60 0 0 0-2.886-.236c-.897-.04-2.374-.04-3.3 0-.917.05-2.207.128-2.857.187s-1.202.079-1.232.05c-.03-.03.02-.1.099-.149s.551-.226 1.034-.384a54 54 0 0 1 1.872-.55 29 29 0 0 1 2.315-.454c.907-.138 1.98-.216 3.35-.236 1.803-.04 2.039-.06 2.147-.217.099-.138.119-1.792.119-7.729zm59.13-5.79c-.345.178-.483.335-.68.768-.207.424-.237.62-.188.936.04.216.178.551.316.758.138.216.413.453.66.561.226.108.561.197.739.197s.482-.06.69-.148c.196-.088.452-.226.55-.325.11-.088.267-.334.375-.551.099-.217.178-.532.178-.69 0-.167-.089-.491-.197-.718a2.1 2.1 0 0 0-.611-.719c-.335-.236-.522-.295-.916-.295-.306 0-.64.089-.917.226m.57.581a.95.95 0 0 1 .493-.049c.138.02.365.158.493.286.187.187.246.354.246.65 0 .324-.059.452-.315.679-.177.157-.433.295-.571.295-.128 0-.365-.069-.513-.138a1.05 1.05 0 0 1-.404-.423 1.14 1.14 0 0 1-.078-.571.94.94 0 0 1 .236-.463c.089-.098.286-.216.414-.266m-34.579 1.29c-.098.079-.128.335-.118.935l.02.818a22 22 0 0 0-.985.206c-.237.05-.73.237-1.084.404-.384.187-.906.561-1.33.965-.443.433-.798.876-1.005 1.29-.177.344-.394.866-.473 1.171-.078.296-.138.867-.138 1.28 0 .404.06 1.015.138 1.35.089.334.247.807.365 1.033.118.227.394.66.62.965.227.295.631.699.897.896s.729.473 1.024.63c.306.148.838.325 1.183.404.354.069.68.128.719.128.04 0 .079.56.098 1.25.02 1.063.05 1.26.197 1.349.128.089.217.089.345 0 .148-.089.178-.285.197-1.349l.02-1.24a11 11 0 0 0 1.38-.325 6.2 6.2 0 0 0 1.23-.61c.316-.217.809-.65 1.084-.956a6 6 0 0 0 .759-1.083c.148-.285.335-.817.424-1.162.078-.354.147-.905.147-1.23a7 7 0 0 0-.147-1.231 6.6 6.6 0 0 0-.424-1.172c-.148-.295-.493-.778-.759-1.083a7.3 7.3 0 0 0-1.034-.915c-.296-.197-.887-.473-1.3-.62-.424-.139-.897-.247-1.064-.247h-.296c.01-1.428-.04-1.772-.118-1.85a.47.47 0 0 0-.276-.129.53.53 0 0 0-.296.128m-1.182 2.816c.306-.099.67-.177 1.084-.177v4.529c0 2.49-.03 4.529-.07 4.529-.038 0-.334-.069-.64-.148a7 7 0 0 1-1.034-.384c-.256-.128-.71-.462-1.015-.728-.295-.276-.68-.729-.857-1.024a5 5 0 0 1-.463-1.113 5 5 0 0 1-.157-1.083c0-.276.049-.729.098-1.014.06-.286.207-.748.345-1.034.128-.285.433-.738.67-1.004.236-.276.67-.65.965-.837.296-.187.779-.423 1.074-.512m1.902-.207.453.06c.256.039.768.216 1.142.403.424.197.907.541 1.232.876.305.296.69.817.867 1.162.207.394.364.896.443 1.369.08.521.08.905.01 1.329-.059.325-.217.827-.355 1.132-.128.295-.423.758-.63 1.034a6 6 0 0 1-.926.857 5 5 0 0 1-1.084.55c-.295.1-.68.218-1.182.316l.02-4.549zm29.959-.207a1.8 1.8 0 0 0-.493.414c-.108.167-.177.433-.177.709s.069.551.187.719c.108.157.364.354.561.443l.365.167v5.218a447 447 0 0 0-3.34 5.563c-.729 1.221-1.645 2.767-2.049 3.446L7.42-14.579c-.177.295-.394.689-.483.856-.098.197-.158.561-.158.916 0 .325.06.738.129.906.069.177.354.512.62.748s.64.463.828.512c.207.059 3.812.088 9.063.069 7.921-.02 8.749-.04 9.015-.187.157-.089.433-.306.6-.493.168-.177.395-.482.483-.67.109-.206.178-.57.178-.885.01-.492-.06-.65-.64-1.674-.355-.62-1.124-1.93-1.705-2.905-.591-.974-1.921-3.17-2.946-4.873l-1.881-3.102-.05-5.267c.463-.079.7-.227.838-.394s.266-.463.305-.67c.03-.216 0-.502-.079-.708a1.56 1.56 0 0 0-.482-.572c-.335-.226-.355-.226-3.833-.216-2.985 0-3.546.03-3.803.157m.197.837c.177-.206.275-.206 3.517-.206 2.029 0 3.418.039 3.536.098.109.05.197.187.197.295 0 .109-.049.286-.098.394q-.099.197-.394.197a.8.8 0 0 0-.493.197c-.187.187-.197.305-.148 6.055l2.335 3.89c2.227 3.711 2.325 3.898 2.168 4.076a10 10 0 0 1-.857.67 5 5 0 0 1-1.38.688c-.551.168-.847.197-1.477.148-.483-.03-.986-.128-1.281-.266-.276-.118-1.094-.6-1.823-1.083-.867-.561-1.665-1.004-3.202-1.595l-1.28.05c-.828.029-1.439.098-1.724.206a3.6 3.6 0 0 1-.522.158c-.04 0-.07-.03-.08-.08 0-.039.365-.669.809-1.397.443-.729.945-1.576 1.123-1.871.167-.295.709-1.23 2.098-3.594l.07-2.855c.058-2.796.058-2.865-.139-3.131a.73.73 0 0 0-.522-.295.52.52 0 0 1-.473-.286c-.138-.246-.138-.276.04-.463m-1.173 14.375a5.4 5.4 0 0 1 1.035-.04c.246.02.63.08.857.129.236.059.65.197.936.325.285.128 1.123.63 1.852 1.112.729.493 1.596.995 1.92 1.123.395.147.878.236 1.479.275.522.02 1.103-.01 1.428-.078a7 7 0 0 0 1.084-.374 7.4 7.4 0 0 0 1.133-.739c.325-.256.61-.473.64-.463.03 0 .108.099.187.217.08.128.542.866 1.015 1.654.749 1.24.867 1.487.867 1.87 0 .267-.079.572-.197.759-.108.187-.384.413-.62.522-.405.187-.66.187-8.887.197-8.069 0-8.492-.01-8.817-.187a1.9 1.9 0 0 1-.572-.512 1.4 1.4 0 0 1-.226-.778c.01-.355.098-.6.482-1.23.267-.434.72-1.212 1.025-1.724.473-.817.601-.975 1.074-1.24a8.4 8.4 0 0 1 1.123-.522 5.8 5.8 0 0 1 1.182-.296m-94.231 16.6c-.246.08-1.241.434-2.217.788-.975.354-2.463.965-3.3 1.369-.837.413-1.793.896-2.118 1.092s-.995.62-1.478.946c-.492.325-1.399 1.004-2.02 1.496a33 33 0 0 0-2.285 2.078c-.63.65-1.468 1.565-1.862 2.057-.394.483-1.064 1.418-1.498 2.068a27 27 0 0 0-1.507 2.658c-.394.808-.877 1.94-1.074 2.511a19 19 0 0 0-.561 2.117c-.158.837-.197 1.32-.158 2.166l.049 1.083c-1.527 3.131-2.167 4.48-2.413 5.022-.237.541-.591 1.29-.779 1.673-.226.453-.325.768-.285.906.049.177.118.217.364.197.286-.02.335-.089 1.419-2.383l1.793-3.76c.522-1.103.709-1.399.867-1.399.108-.01.64-.118 1.182-.256a12 12 0 0 0 1.97-.729 20 20 0 0 0 1.823-.994 23 23 0 0 0 1.773-1.26c.513-.414 1.96-1.772 3.222-3.043 1.26-1.26 2.364-2.402 2.443-2.54.108-.177.118-.305.05-.443-.08-.157-.198-.197-.543-.197-.246 0-.443-.049-.443-.098 0-.06.345-.286.759-.502.423-.227 1.044-.63 1.399-.916.344-.276.66-.571.7-.65.038-.079.029-.256-.02-.394-.09-.236-.109-.246-.73-.177-.404.05-.63.04-.63-.02 0-.059.453-.334.995-.62.552-.276 1.192-.69 1.419-.906.295-.285.61-.817 1.172-1.969.424-.866 1.133-2.333 1.596-3.249.453-.925 1.074-2.048 1.37-2.51.295-.463.541-.906.541-.985a.47.47 0 0 0-.128-.276c-.069-.069-.187-.118-.266-.108-.079 0-.345.069-.591.157M-82.733.16c.158-.089.306-.128.325-.089s-.177.443-.423.906c-.257.463-1.025 1.989-1.715 3.397-1.024 2.107-1.32 2.619-1.655 2.924-.226.207-1.005.66-1.724 1.004-.719.345-1.665.749-2.118.886-.542.168-.847.325-.906.453-.07.138-.07.246.02.355.108.138.285.147 1.477.069 1.064-.06 1.36-.05 1.36.039 0 .069-.217.256-.473.414s-.956.511-1.547.777c-.6.266-1.26.542-1.478.61a3.5 3.5 0 0 0-.62.257c-.118.079-.217.226-.217.335 0 .108.089.236.197.295.118.059.66.069 2.61-.03l-1.132 1.211c-.62.67-1.645 1.674-2.266 2.245-.62.571-1.36 1.211-1.626 1.428-.275.216-.916.67-1.428 1.014-.512.335-1.399.837-1.97 1.113-.572.265-1.33.57-1.695.67-.364.098-.68.147-.719.098-.03-.04.217-.591.552-1.231a64.58 64.58 0 0 1 2.63-4.45c.296-.463.877-1.3 1.28-1.871a83 83 0 0 1 1.675-2.216 63 63 0 0 1 1.675-2.018c.414-.463 1.153-1.26 1.636-1.772a84 84 0 0 1 2.078-2.058c.65-.62 1.557-1.437 2.02-1.831a32 32 0 0 1 1.724-1.34A34 34 0 0 1-83.659.712c.355-.217.769-.473.926-.551m-4.522 1.634c.483-.226.956-.423 1.035-.413.078 0 0 .108-.197.265-.188.148-.759.62-1.281 1.054-.512.423-1.714 1.556-2.67 2.51-.946.946-2.167 2.236-2.71 2.856a64 64 0 0 0-1.782 2.117 56 56 0 0 0-3.576 5.021c-.404.65-1.114 1.841-1.577 2.649-.463.807-.896 1.477-.965 1.496-.089.03-.109-.088-.059-.482.029-.276.167-.975.305-1.546s.424-1.477.64-2.018c.217-.542.601-1.408.867-1.92s.877-1.536 1.36-2.265 1.133-1.644 1.448-2.018c.315-.384.838-.995 1.172-1.369.326-.374 1.114-1.142 1.734-1.713a31 31 0 0 1 2.266-1.831 33 33 0 0 1 2.118-1.389 33 33 0 0 1 1.872-1.004m36.648-2.422c-.03.148-.128.551-.206.886a5.5 5.5 0 0 1-.325.985 2.5 2.5 0 0 1-.542.689 2.6 2.6 0 0 1-.877.473c-.286.078-.64.147-.788.147s-.355.04-.463.099c-.109.049-.197.177-.197.266 0 .098.03.226.069.295.039.059.384.167.768.226.374.06.906.227 1.172.375.257.147.552.374.65.512.1.137.257.443.345.689.089.246.207.728.276 1.073.07.394.178.67.286.738.118.07.227.08.335.01.108-.059.236-.413.345-.935.108-.463.285-1.034.404-1.28.128-.236.384-.532.571-.66.187-.118.542-.285.788-.374a2.6 2.6 0 0 1 .739-.148c.158 0 .394-.069.512-.147.128-.08.227-.217.227-.296s-.099-.216-.227-.295a1 1 0 0 0-.463-.148c-.138 0-.483-.069-.768-.147a2.6 2.6 0 0 1-.877-.473 3 3 0 0 1-.552-.709c-.108-.217-.276-.768-.364-1.23-.168-.818-.178-.838-.473-.867-.256-.03-.305 0-.365.246m.247 2.097c0-.059.049-.098.118-.098s.207.207.325.463c.128.305.355.58 1.123 1.161l-.266.158a3.5 3.5 0 0 0-.62.541c-.197.207-.385.483-.414.601-.04.128-.109.226-.148.226-.04 0-.128-.108-.197-.246a3.6 3.6 0 0 0-.443-.61 3.4 3.4 0 0 0-.858-.67l.444-.325c.246-.167.551-.492.69-.708.137-.217.246-.444.246-.493m-16.699-.285c-.266.187-.561.492-.66.68a3.2 3.2 0 0 0-.246.688c-.03.197 0 .552.079.827q.133.472.532.857c.246.236.551.413.807.482.237.05.562.099.74.099s.502-.089.719-.187c.216-.099.531-.325.69-.512.186-.207.354-.532.413-.827.069-.286.079-.64.04-.837a2.6 2.6 0 0 0-.267-.67 2.5 2.5 0 0 0-.571-.59c-.315-.217-.522-.276-1.084-.306-.66-.03-.729-.01-1.192.296m.64.512c.188-.07.395-.128.463-.128.07 0 .286.069.473.147.188.08.434.296.542.463.109.177.197.473.197.64 0 .177-.069.453-.147.62a1.2 1.2 0 0 1-.444.443 1.9 1.9 0 0 1-.69.148c-.305 0-.472-.069-.758-.325-.315-.285-.355-.374-.364-.827-.01-.364.039-.58.187-.778a1.3 1.3 0 0 1 .541-.403m47.289.807c-.463.305-1.3.788-1.872 1.073a34 34 0 0 1-2.118.975c-.601.246-1.596.6-2.217.788-.62.187-1.596.433-2.167.541-.572.118-1.37.256-1.774.325-.443.079-1.734.128-3.172.128-1.813.01-2.463.04-2.561.138-.109.098-.099.345.049 1.477.098.738.266 1.86.374 2.48.109.621.325 1.616.483 2.216.148.591.483 1.635.739 2.314.256.68.67 1.625.916 2.117.256.482.769 1.31 1.153 1.821.384.512 1.015 1.24 1.409 1.625.394.374.995.886 1.33 1.122.334.237 1.054.64 1.596.906.541.256 1.34.571 1.773.7.63.176 1.034.216 2.03.226h1.24c1.35-.68 1.754-.985 2.345-1.576.434-.433 1.005-1.122 1.271-1.526s.7-1.181.956-1.723c.256-.541.581-1.388.729-1.87.138-.493.325-1.26.404-1.724.088-.462.177-1.565.206-2.461.03-.926 0-2.206-.068-2.954a34 34 0 0 0-.404-2.855 42 42 0 0 0-.621-2.757 58 58 0 0 0-.473-1.624c-.108-.335-.177-.404-.423-.424-.217-.01-.523.118-1.133.522m.187.857c.561-.355.64-.375.729-.237.059.089.246.739.413 1.448.178.699.434 1.92.582 2.707.138.788.295 1.91.355 2.511.049.59.098 1.546.098 2.117 0 .57-.05 1.408-.108 1.87-.06.463-.168 1.172-.247 1.576a22 22 0 0 1-.492 1.772 13 13 0 0 1-.838 1.92 14 14 0 0 1-1.034 1.575 10 10 0 0 1-1.054 1.113 8 8 0 0 1-1.104.719c-.58.295-.62.295-1.674.256-.818-.03-1.291-.109-1.921-.315a12.6 12.6 0 0 1-1.715-.729 11.3 11.3 0 0 1-1.665-1.093 12 12 0 0 1-1.221-1.132c-.237-.276-.62-.758-.867-1.083s-.739-1.172-1.084-1.87a25 25 0 0 1-.936-2.118 31 31 0 0 1-.6-1.969 31 31 0 0 1-.533-2.56 53 53 0 0 1-.364-2.707l2.148-.01c1.733-.01 2.403-.05 3.438-.227.7-.118 1.793-.344 2.413-.502a40 40 0 0 0 2.316-.69c.65-.226 1.891-.757 2.758-1.18.867-.424 1.862-.946 2.207-1.162m39.407-.187c-.08.059-.562.689-1.074 1.398-.503.699-1.3 1.811-1.764 2.461-.453.65-1.231 1.733-1.704 2.412-.483.68-.897 1.36-.936 1.526-.03.168 0 .414.079.562.079.147.492.541.936.886.443.344 1.891 1.487 3.201 2.55 1.32 1.063 2.582 2.048 2.798 2.195.217.148.493.256.611.256.128 0 .345-.059.493-.137.167-.08.808-.887 1.655-2.088.758-1.063 1.94-2.747 2.63-3.721 1.054-1.507 1.251-1.842 1.251-2.157.01-.197-.039-.453-.088-.56-.06-.11-.64-.631-1.31-1.153-.66-.531-1.961-1.555-2.877-2.294-.926-.738-1.95-1.546-2.296-1.802-.512-.384-.68-.462-1.034-.462-.227 0-.483.059-.572.128m-.138 1.476c.325-.443.64-.817.709-.817s1.005.68 2.069 1.516c1.073.837 2.482 1.95 3.133 2.472s1.28 1.034 1.399 1.142c.128.098.226.256.226.335 0 .078-.325.6-.72 1.152-.403.56-1.142 1.614-1.664 2.343-.512.729-1.035 1.487-1.163 1.674s-.541.758-.906 1.25c-.374.502-.72.916-.768.916-.06 0-1.114-.808-2.345-1.792-1.232-.985-2.7-2.166-3.27-2.62-.572-.452-1.094-.895-1.163-.984-.109-.147.138-.541 1.881-2.973 1.094-1.546 2.266-3.17 2.582-3.614m-80.883 1.162c-.384.05-1.024.177-1.428.286s-1.182.423-1.724.689a9.8 9.8 0 0 0-1.823 1.172c-.463.374-1.064.955-1.35 1.3-.275.344-.69.925-.906 1.29a12 12 0 0 0-.71 1.427 13 13 0 0 0-.492 1.555c-.108.434-.217 1.32-.256 1.97-.04.817-.01 1.447.089 2.067.079.483.256 1.221.384 1.625s.384 1.043.581 1.427c.316.61.384.69.63.69.158 0 .336-.08.395-.168.079-.128.03-.295-.256-.837a11 11 0 0 1-.552-1.26 13 13 0 0 1-.325-1.181c-.089-.355-.128-1.133-.128-1.97.01-1.122.059-1.555.256-2.313.138-.512.404-1.27.581-1.674.187-.404.562-1.064.828-1.467.266-.404.827-1.044 1.241-1.428a11.5 11.5 0 0 1 1.626-1.22 10 10 0 0 1 1.812-.818c.513-.157 1.38-.335 1.921-.394a11 11 0 0 1 1.675-.04c.374.04.975.139 1.33.217.355.08.906.247 1.232.365.325.128.926.413 1.33.65.403.236 1.083.768 1.517 1.171.423.414 1.024 1.123 1.33 1.585.305.463.7 1.192.867 1.625s.364 1.073.433 1.428c.069.354.168.699.227.768.059.068.216.118.354.098.207-.03.247-.089.276-.423.01-.217-.069-.729-.177-1.133a12.5 12.5 0 0 0-.64-1.624c-.227-.492-.69-1.24-1.015-1.674a10.4 10.4 0 0 0-1.163-1.31 13 13 0 0 0-1.418-1.053c-.463-.295-1.192-.67-1.626-.827a14 14 0 0 0-1.556-.443c-.414-.089-1.193-.177-1.724-.207-.523-.02-1.271 0-1.646.06m45.525.394c-.108.05-.187.187-.178.286.01.108.188.344.405.512.206.177.729.531 1.152.787.424.246 1.172.65 1.665.896.483.246 1.547.67 2.364.945.808.276 2.01.591 2.66.71.897.157 1.626.216 3.025.226l1.852.01c-.089.531-.246 1.29-.414 2.018a41 41 0 0 1-.59 2.363 33 33 0 0 1-.789 2.363 37 37 0 0 1-1.163 2.708c-.374.758-.985 1.84-1.369 2.412a21 21 0 0 1-1.458 1.91 17 17 0 0 1-1.557 1.506c-.433.345-1.211.847-1.724 1.103s-1.201.532-1.527.6c-.325.07-.906.1-1.28.08-.453-.03-.848-.129-1.133-.276-.247-.118-.68-.404-.976-.63-.295-.227-.758-.72-1.044-1.093-.285-.384-.65-.955-.808-1.28a8.4 8.4 0 0 1-.463-1.113c-.108-.354-.226-.532-.354-.561a.49.49 0 0 0-.355.069c-.118.098-.148.226-.108.522.03.216.315.906.62 1.526.493.984.68 1.24 1.409 1.969.483.482 1.074.965 1.39 1.122.295.158.758.345 1.034.424.266.069.807.128 1.202.128.532 0 .955-.079 1.625-.296a10 10 0 0 0 1.655-.728c.404-.236 1.113-.758 1.586-1.162A16 16 0 0 0-7.2 24.804c.355-.404.818-.985 1.034-1.28s.621-.916.897-1.379.7-1.25.955-1.752c.247-.492.631-1.359.858-1.92.226-.551.551-1.447.738-1.989.188-.541.463-1.497.631-2.117.158-.62.335-1.359.394-1.624.069-.276.197-.985.296-1.576.098-.6.138-1.152.098-1.23a.5.5 0 0 0-.207-.207c-.079-.03-.492-.02-.926.03-.433.049-1.36.068-2.049.039-.69-.03-1.842-.168-2.561-.305a19 19 0 0 1-2.463-.64c-.63-.217-1.695-.67-2.365-.995a23 23 0 0 1-2.039-1.181c-.463-.325-.857-.581-.887-.581a.9.9 0 0 0-.236.108m20.925 2.52a1.33 1.33 0 0 0-.522.522c-.148.306-.168.71-.168 3.81 0 2.876.02 3.535.148 3.82.079.188.266.424.414.513.246.157.581.177 3.94.148 2.197-.01 3.754-.06 3.872-.119.108-.059.286-.246.394-.423.187-.305.197-.492.197-3.86 0-3.18-.02-3.583-.177-3.889a1.3 1.3 0 0 0-.512-.521c-.316-.148-.71-.168-3.793-.168s-3.488.02-3.793.168m.256.73c.108-.06 1.527-.09 3.537-.09 1.842 0 3.428.05 3.517.09.157.078.177.354.177 3.603 0 2.638-.03 3.554-.118 3.643-.089.098-.946.128-3.596.128-3.38 0-3.487-.01-3.576-.197-.06-.118-.109-1.576-.118-3.643-.02-3.299-.01-3.446.177-3.535m-54.44-.208c-.404.05-.877.128-1.035.178-.207.059-.305.147-.325.325-.02.128.02.285.099.354.098.099.256.099.67.02.295-.06 1.073-.109 1.724-.109.827-.01 1.35.04 1.743.148.316.089.68.276.818.414s.246.364.246.512c0 .157-.138.482-.295.738-.168.266-.65.748-1.114 1.113-.443.354-1.477 1.033-2.285 1.516a60 60 0 0 1-2.759 1.516c-.709.345-2.039.975-2.955 1.398-.926.414-2.562 1.123-3.645 1.576a157 157 0 0 1-3.35 1.319c-.758.276-1.468.541-1.576.59-.108.05-.926.306-1.823.582s-2.068.61-2.61.738c-.542.138-1.34.315-1.774.404-.433.078-1.28.197-1.871.256-.601.059-1.35.078-1.675.04-.325-.03-.7-.11-.838-.159a1.7 1.7 0 0 1-.472-.305c-.158-.157-.227-.325-.227-.61q.01-.395.286-.837c.157-.246.541-.69.867-.985.315-.295.955-.797 1.418-1.102s.887-.62.956-.71c.089-.108.098-.216.03-.354a.4.4 0 0 0-.326-.197c-.118 0-.66.296-1.202.65-.541.365-1.29.965-1.655 1.33-.364.373-.768.895-.906 1.171a2.25 2.25 0 0 0-.256 1.053c0 .434.059.65.226.916.129.187.404.443.621.561s.7.266 1.084.325c.413.07 1.074.089 1.675.05.541-.03 1.645-.197 2.462-.355a75 75 0 0 0 2.463-.541c.542-.138 1.96-.572 3.153-.975a77 77 0 0 0 3.202-1.132c.571-.227 1.92-.788 3.004-1.231a133 133 0 0 0 3.252-1.408c.699-.325 1.92-.906 2.709-1.3a63 63 0 0 0 2.463-1.31c.571-.324 1.369-.816 1.773-1.082a27 27 0 0 0 1.38-1.024c.354-.286.797-.748.984-1.034.266-.394.355-.62.375-1.054.03-.413-.01-.64-.148-.876a1.9 1.9 0 0 0-.522-.561c-.187-.128-.611-.305-.936-.394a9.4 9.4 0 0 0-1.478-.187 11 11 0 0 0-1.625.04m-23.802 1.566c-.158.108-.374.295-.463.423-.099.128-.168.404-.168.64 0 .237.06.542.129.69.078.157.246.344.374.433.128.088.364.187.532.226.177.05.423.02.64-.069.187-.079.453-.266.591-.413.168-.187.257-.404.276-.729.02-.315-.03-.541-.157-.748-.099-.168-.345-.374-.542-.473-.207-.088-.493-.167-.64-.167s-.405.088-.572.187m.207.817q.147-.216.443-.216.295 0 .394.196c.05.109.099.286.099.394s-.099.266-.227.345a.47.47 0 0 1-.463.069.57.57 0 0 1-.315-.325.56.56 0 0 1 .069-.463m56.706 1.802c-.059.079-.089.256-.059.394s.217.403.414.59c.216.207.571.414.867.503.266.078.58.137.69.137.108 0 .423-.068.709-.147.325-.089.67-.286.916-.522.217-.197.394-.423.394-.492 0-.06-.07-.187-.148-.266-.079-.079-.187-.148-.226-.148-.04-.01-.267.148-.513.345-.305.236-.59.364-.886.413-.335.04-.562 0-.917-.157-.256-.118-.463-.237-.463-.286 0-.04-.088-.167-.197-.295-.108-.118-.256-.217-.335-.217-.078 0-.187.07-.246.148m5.586 1.181c-.108.128-.099.227.06.62.107.257.354.63.54.838.198.206.553.472.799.58.305.148.63.207 1.084.207.364 0 .798-.069 1.004-.167.207-.089.552-.325.769-.532.217-.197.394-.443.394-.541 0-.089-.108-.227-.246-.296-.217-.108-.266-.088-.591.197-.188.177-.454.364-.592.424-.137.049-.472.098-.738.098-.276 0-.64-.069-.818-.158a1.8 1.8 0 0 1-.493-.374c-.098-.108-.266-.393-.374-.63-.148-.315-.246-.413-.424-.413a.6.6 0 0 0-.374.147m-40.146 2.63c-.049.068-.167.462-.246.866a11 11 0 0 1-.473 1.526 12 12 0 0 1-.768 1.526c-.256.404-.818 1.093-1.251 1.536-.434.433-1.054.975-1.38 1.191s-.817.512-1.083.65a12 12 0 0 1-2.217.817c-.473.128-1.015.177-2.069.177-1.27-.01-1.527-.039-2.315-.275-.492-.148-1.202-.424-1.576-.62a11 11 0 0 1-1.36-.828c-.364-.265-.719-.482-.788-.482a.44.44 0 0 0-.246.118.5.5 0 0 0-.118.296c0 .098.206.354.463.57.256.227 1.005.67 1.655.995.65.315 1.537.68 1.97.797.64.168 1.084.207 2.364.217 1.35 0 1.695-.03 2.414-.226a14 14 0 0 0 1.527-.512c.375-.158 1.084-.542 1.576-.857a12.6 12.6 0 0 0 1.675-1.359c.434-.423.995-1.093 1.241-1.467.257-.384.592-.955.75-1.28.167-.325.423-.965.56-1.427.149-.463.277-1.103.287-1.428.02-.571.01-.59-.237-.62-.138-.02-.296.03-.355.098m56.017 1.17c-.187.03-.433.119-.562.198-.118.069-.285.285-.364.453-.128.266-.148.955-.148 4.066 0 3.092.02 3.79.148 4.057.079.177.276.403.443.492.266.157.64.177 3.911.177 3.35-.01 3.646-.02 3.921-.187.158-.099.345-.335.414-.512.099-.246.128-1.29.128-4.056 0-3.082-.03-3.771-.147-4.057a1.02 1.02 0 0 0-.473-.502c-.266-.138-.808-.158-3.626-.177-1.822 0-3.468.01-3.645.049m.601.759c.355-.02 1.882-.03 3.409-.03 2.315 0 2.788.02 2.935.148.148.138.168.483.158 3.761 0 2.206-.04 3.702-.098 3.82-.099.188-.197.197-3.596.197s-3.507-.01-3.596-.197c-.06-.118-.099-1.614-.109-3.82 0-2.835.03-3.643.129-3.731.069-.06.413-.128.768-.148m11.783-.778-2.74.06-.57.64c0 7.236.02 7.925.147 8.171.079.158.276.365.444.443.246.128.886.148 4.196.119l3.892-.02.581-.64v-8.074c-.64-.64-.759-.689-1.163-.689-.256 0-.817-.02-1.25-.04-.434-.01-2.02 0-3.537.03m-2.365.808c.118-.06 1.468-.08 3.734-.05 2.463.04 3.586.089 3.675.168.098.088.128.906.118 3.81 0 2.767-.03 3.722-.118 3.81-.089.099-.976.128-3.724.128-2.778 0-3.626-.03-3.724-.118-.099-.098-.128-1.004-.138-3.889-.02-3.623-.01-3.761.177-3.86m-30.609.57c-.128.04-.433.168-.66.286s-.62.404-.867.63c-.276.266-.443.502-.443.64.01.158.079.237.256.276.187.04.345-.04.66-.315.236-.197.67-.473.965-.6.394-.178.71-.247 1.183-.247.443 0 .788.07 1.133.217.266.128.62.315.778.433.167.118.463.433.68.709.216.285.453.738.541 1.073.099.325.237.61.335.66.099.049.247.069.325.04.08-.03.168-.139.197-.247.03-.108 0-.384-.059-.62a4.3 4.3 0 0 0-.315-.808c-.108-.216-.404-.63-.65-.925-.335-.384-.66-.62-1.192-.886-.67-.325-.808-.355-1.675-.375-.512-.01-1.054.01-1.192.06m-33.969 2.295c-.246.128-.551.354-.68.521a3.2 3.2 0 0 0-.383.611c-.07.177-.129.561-.129.837 0 .295.08.699.178.915.108.217.335.542.522.72.177.177.552.393.827.472q.49.16.936.098c.247-.04.64-.167.877-.285.246-.118.562-.394.72-.61a2.9 2.9 0 0 0 .383-.887c.09-.404.08-.6-.049-1.034a2.14 2.14 0 0 0-.473-.876 2.8 2.8 0 0 0-.719-.512 2.7 2.7 0 0 0-.985-.187c-.424 0-.72.06-1.025.217m.73.56c.157-.038.403-.038.541-.019.138.03.375.128.532.217.158.088.375.315.483.502s.197.502.197.69c0 .186-.079.492-.187.678a2.1 2.1 0 0 1-.434.522c-.137.099-.443.207-.69.237-.315.039-.541 0-.787-.128a2 2 0 0 1-.523-.424c-.098-.137-.206-.443-.236-.689-.04-.325-.01-.551.128-.827.099-.217.296-.463.434-.541.138-.09.374-.178.541-.217m-48.52 1.556c-.246.02-.936.099-1.527.178-.601.088-1.488.266-1.97.394-.493.137-1.222.364-1.626.521-.66.237-.749.306-.768.542-.01.167.039.295.147.354.128.07.434.01 1.114-.236a24 24 0 0 1 2.118-.6c1.093-.256 1.33-.286 3.202-.286 1.891 0 2.049.01 2.482.217.296.137.473.285.473.393 0 .099-.098.276-.217.394-.128.118-.738.443-1.36.719-.62.276-1.28.61-1.457.748a1.7 1.7 0 0 0-.463.532c-.08.157-.148.384-.148.492s.069.325.148.492c.098.198.325.375.66.542.374.177.827.276 1.655.354.877.09 1.409.09 2.364 0 .68-.068 2.335-.344 3.695-.63 2.364-.482 2.522-.502 4.088-.512 1.547 0 1.655.01 2.365.276.403.158.866.286 1.034.295.256.02.296-.02.315-.255.03-.237-.04-.296-.59-.562a8 8 0 0 0-1.35-.453c-.582-.128-1.045-.157-2.168-.108-1.192.04-1.832.138-3.842.551-1.36.286-2.975.552-3.695.61-.955.09-1.526.09-2.246 0-.522-.058-1.093-.176-1.25-.255-.188-.089-.296-.227-.296-.345 0-.108.098-.285.216-.394.128-.118.621-.364 1.104-.57.492-.198 1.113-.503 1.379-.67.345-.217.571-.443.72-.739.137-.275.196-.521.157-.679-.03-.138-.178-.374-.316-.522-.137-.148-.492-.364-.778-.462-.285-.119-.995-.237-1.625-.296-.611-.05-1.153-.088-1.202-.079-.06.01-.296.03-.542.05m-3.645-54.595c-.079.06-.128.178-.118.247s.088.197.167.275c.128.128.759.148 4.522.148 3.754 0 4.404-.02 4.532-.148.088-.078.157-.206.157-.275 0-.06-.059-.178-.128-.247-.088-.098-1.103-.118-4.561-.118-3.3 0-4.473.03-4.571.118m116.732 2.747c-.088.05-.236.227-.325.384a1.4 1.4 0 0 0-.157.542c0 .138.078.374.167.541.099.158.276.335.394.394.128.05.355.099.522.099.158 0 .424-.079.591-.178.158-.088.335-.265.395-.393a1.5 1.5 0 0 0 .098-.493c0-.147-.079-.374-.168-.512-.098-.137-.236-.305-.325-.364-.078-.069-.344-.118-.59-.118-.247 0-.513.04-.602.098m.316.7a.5.5 0 0 1 .295-.119c.099 0 .227.08.286.168.069.128.05.226-.079.354-.108.109-.226.148-.345.099a.5.5 0 0 1-.226-.227.36.36 0 0 1 .069-.275m-116.99.285c-.107.05-.186.177-.176.266.01.088.069.226.137.295.099.099 1.449.118 6.286.118 4.798 0 6.187-.03 6.285-.128a.4.4 0 0 0 .118-.246c0-.059-.069-.187-.147-.266-.128-.128-.956-.147-6.236-.147-3.931 0-6.148.04-6.266.108m116.881 3.633c-.197.06-.463.256-.66.492-.177.217-.355.512-.394.66-.03.158-.03.492 0 .768.03.266.138.6.237.738.108.138.325.335.482.444.158.118.453.236.65.275.207.04.552.02.769-.03.217-.058.552-.245.739-.423.197-.167.423-.492.502-.709.109-.265.138-.531.089-.787a2.5 2.5 0 0 0-.286-.739c-.128-.187-.394-.433-.61-.531a2.3 2.3 0 0 0-.779-.217c-.217-.02-.552.01-.739.06m0 .975c.187-.197.375-.286.581-.286.168 0 .404.04.523.099.128.049.285.197.354.315.08.128.128.384.128.57-.01.188-.069.434-.138.542a1.2 1.2 0 0 1-.423.325 1.03 1.03 0 0 1-.562.08c-.147-.03-.374-.168-.512-.306-.187-.187-.246-.345-.236-.65 0-.305.069-.473.285-.69m-116.979-.729a.6.6 0 0 0-.059.246c0 .05.07.168.148.247.128.128.798.147 4.798.147 4.6.01 4.66 0 4.857-.197.148-.167.167-.246.088-.374-.098-.157-.532-.167-4.945-.197-4.236-.02-4.837 0-4.887.128m78.045 31.546c-.147.04-.394.148-.541.237-.158.078-.444.315-.64.531a3.2 3.2 0 0 0-.562.818c-.119.246-.207.56-.207.708 0 .178.069.306.197.375a.42.42 0 0 0 .394 0c.108-.06.197-.188.197-.296s.089-.374.197-.59c.108-.217.384-.532.61-.69.247-.177.602-.325.868-.354.285-.04.581-.01.837.088.217.089.552.315.739.512.286.296.394.355.61.306.208-.05.277-.119.277-.306 0-.138-.128-.384-.276-.551-.148-.177-.483-.414-.74-.542-.275-.147-.718-.256-1.083-.285-.335-.02-.729-.01-.877.04m-7.172 2.127a2.9 2.9 0 0 0-.837.473 3.6 3.6 0 0 0-.66.817c-.148.266-.296.64-.325.827-.05.256-.03.374.088.463a.55.55 0 0 0 .375.088c.167-.04.256-.157.345-.472.069-.237.276-.601.453-.818a2.6 2.6 0 0 1 .69-.57 2.2 2.2 0 0 1 .758-.168c.217 0 .532.059.71.138.177.069.492.315.689.541.256.276.443.394.591.374q.227-.02.246-.246c.02-.118-.059-.364-.157-.541a2.7 2.7 0 0 0-.572-.581 3.2 3.2 0 0 0-.719-.374 2.8 2.8 0 0 0-.788-.089c-.246 0-.64.06-.887.138m8.808 4.263c-.06.04-.237.315-.394.61-.158.296-.552.818-.877 1.143a4.4 4.4 0 0 1-1.28.935c-.66.315-.75.335-1.774.335-.985 0-1.143-.03-1.675-.276-.325-.157-.768-.413-.985-.58-.246-.178-.493-.276-.64-.257-.178.02-.256.099-.276.276-.02.138.049.325.148.423.098.109.463.355.817.562.355.206.926.453 1.28.541.464.118.907.158 1.627.128.876-.04 1.063-.079 1.724-.394a7.5 7.5 0 0 0 1.25-.758c.286-.216.74-.728 1.015-1.122.306-.434.513-.847.532-1.044.02-.226-.02-.384-.128-.473-.088-.068-.177-.127-.207-.127s-.098.039-.157.078" clip-rule="evenodd"/></g></svg>